#!OML:ASF I:\golf\golf\golf 2\Subject 1\2002-09-07\Subject1.ASF
:FULLY-SPECIFIED
:DEGREES
340
root -10.2 18.0743 5.11134 -153.261 76.1437 -169.302
lowerback 3.25367 1.70863 0.273676
upperback 5.32801 2.39955 4.39436
thorax 3.49857 1.2137 4.39674
lowerneck -11.5875 2.62171 4.96714
upperneck 38.8717 6.90723 -4.57776
head 16.1416 3.69808 -1.5262
rclavicle 1.35174e-014 2.78299e-014
rhumerus -11.5573 24.9392 -100.446
rradius 37.6598
rwrist -43.254
rhand -30.2149 -11.2989
rfingers 7.12502
rthumb -3.52502 -41.2495
lclavicle 1.35174e-014 2.78299e-014
lhumerus -8.39392 -37.2427 106.453
lradius 34.2284
lwrist 45.822
lhand -3.22594 57.0464
lfingers 7.12502
lthumb 22.4971 85.7559
rfemur -25.2622 -6.93827 15.4439
rtibia 23.9826
rfoot -7.25257 -14.2108
rtoes -0.913661
lfemur -30.1729 -0.0172413 -12.8747
ltibia 22.8993
lfoot -8.27281 -12.2907
ltoes -9.14554
341
root -10.2008 18.0764 5.11289 -153.202 76.1253 -169.275
lowerback 3.26099 1.74359 0.268956
upperback 5.30016 2.44606 4.38836
thorax 3.46193 1.237 4.39137
lowerneck -11.5819 2.68367 5.05259
upperneck 38.8531 6.98309 -4.5924
head 16.1412 3.74011 -1.53461
rclavicle 4.85035e-014 -3.73715e-014
rhumerus -11.5858 24.8716 -100.428
rradius 37.7095
rwrist -43.2343
rhand -30.2862 -11.3997
rfingers 7.12502
rthumb -3.59388 -41.3491
lclavicle 4.85035e-014 -3.73715e-014
lhumerus -8.42159 -37.247 106.522
lradius 34.1958
lwrist 45.7595
lhand -3.33417 57.1319
lfingers 7.12502
lthumb 22.3932 85.854
rfemur -25.2864 -6.94194 15.4653
rtibia 23.9582
rfoot -7.28714 -14.176
rtoes -0.565571
lfemur -30.1946 0.0137112 -12.869
ltibia 22.8563
lfoot -8.26305 -12.325
ltoes -9.18827
342
root -10.2013 18.078 5.11409 -153.116 76.0906 -169.207
lowerback 3.25628 1.76057 0.283122
upperback 5.28433 2.46866 4.38662
thorax 3.44698 1.24889 4.38096
lowerneck -11.6003 2.73983 5.1482
upperneck 38.8727 7.06361 -4.63226
head 16.1691 3.78251 -1.55455
rclavicle 7.07673e-014 5.56597e-015
rhumerus -11.6322 24.9085 -100.417
rradius 37.7894
rwrist -43.3586
rhand -30.3719 -11.4195
rfingers 7.12502
rthumb -3.6766 -41.3676
lclavicle 7.07673e-014 5.56597e-015
lhumerus -8.43663 -37.2343 106.561
lradius 34.1597
lwrist 45.6571
lhand -3.27516 57.243
lfingers 7.12502
lthumb 22.4499 85.9582
rfemur -25.2804 -6.84543 15.4746
rtibia 23.9177
rfoot -7.26347 -14.29
rtoes -0.478271
lfemur -30.2175 0.0296649 -12.8346
ltibia 22.8297
lfoot -8.20023 -12.393
ltoes -8.87309
343
root -10.202 18.0787 5.11326 -153.299 76.0697 -169.417
lowerback 3.24088 1.74083 0.251354
upperback 5.2791 2.44114 4.3758
thorax 3.45138 1.23378 4.3882
lowerneck -11.601 2.83011 5.16394
upperneck 38.8037 7.18851 -4.65042
head 16.1448 3.83114 -1.54378
rclavicle -3.18055e-015 -5.40694e-014
rhumerus -11.6581 24.9841 -100.419
rradius 37.8004
rwrist -43.4188
rhand -30.4189 -11.3688
rfingers 7.12502
rthumb -3.72202 -41.3161
lclavicle -3.18055e-015 -5.40694e-014
lhumerus -8.41266 -37.0874 106.58
lradius 34.1146
lwrist 45.5618
lhand -3.21777 57.2644
lfingers 7.12502
lthumb 22.5049 85.973
rfemur -25.2653 -6.78997 15.4007
rtibia 23.8731
rfoot -7.26262 -14.3767
rtoes -0.0359673
lfemur -30.2417 -0.0523121 -12.8441
ltibia 22.8182
lfoot -8.08229 -12.4211
ltoes -7.97896
344
root -10.2028 18.0786 5.11295 -153.513 76.0627 -169.659
lowerback 3.23341 1.76364 0.254733
upperback 5.26794 2.47049 4.31967
thorax 3.44397 1.24881 4.32714
lowerneck -11.6416 2.8908 5.21924
upperneck 38.7504 7.24119 -4.62891
head 16.1326 3.86023 -1.53433
rclavicle -1.86858e-014 -3.10104e-014
rhumerus -11.6003 24.7935 -100.45
rradius 37.7521
rwrist -43.3486
rhand -30.5141 -11.4489
rfingers 7.12502
rthumb -3.81391 -41.3945
lclavicle -1.86858e-014 -3.10104e-014
lhumerus -8.42168 -37.1509 106.59
lradius 34.076
lwrist 45.5718
lhand -3.28597 57.227
lfingers 7.12502
lthumb 22.4395 85.9435
rfemur -25.2663 -6.862 15.3488
rtibia 23.8322
rfoot -7.30446 -14.3418
rtoes 0.264642
lfemur -30.2595 -0.111657 -12.8768
ltibia 22.8034
lfoot -8.0003 -12.4477
ltoes -7.33286
345
root -10.2027 18.0797 5.11405 -153.472 76.0746 -169.62
lowerback 3.24179 1.83146 0.276834
upperback 5.26306 2.56114 4.28668
thorax 3.42976 1.29531 4.27888
lowerneck -11.6644 2.91247 5.33777
upperneck 38.7154 7.25134 -4.67267
head 16.1289 3.87506 -1.57199
rclavicle -1.94809e-014 2.46493e-014
rhumerus -11.5048 24.5765 -100.429
rradius 37.6798
rwrist -43.347
rhand -30.5047 -11.4958
rfingers 7.12502
rthumb -3.80486 -41.4416
lclavicle -1.94809e-014 2.46493e-014
lhumerus -8.44755 -37.3437 106.609
lradius 34.0695
lwrist 45.5893
lhand -3.30285 57.2186
lfingers 7.12502
lthumb 22.4233 85.937
rfemur -25.2696 -6.92003 15.374
rtibia 23.8254
rfoot -7.36693 -14.2575
rtoes 0.491735
lfemur -30.2382 -0.0849186 -12.871
ltibia 22.7652
lfoot -8.00504 -12.4277
ltoes -7.51649
346
root -10.2038 18.0811 5.11442 -153.535 76.1017 -169.668
lowerback 3.27674 1.86166 0.193207
upperback 5.26116 2.60175 4.31201
thorax 3.40076 1.31272 4.35059
lowerneck -11.6167 2.96663 5.34283
upperneck 38.653 7.33198 -4.68849
head 16.0923 3.90736 -1.56665
rclavicle -3.10104e-014 5.56597e-014
rhumerus -11.5075 24.6864 -100.355
rradius 37.6715
rwrist -43.6075
rhand -30.52 -11.4038
rfingers 7.12502
rthumb -3.81958 -41.3493
lclavicle -3.10104e-014 5.56597e-014
lhumerus -8.45817 -37.3496 106.662
lradius 34.0751
lwrist 45.5768
lhand -3.23379 57.2342
lfingers 7.12502
lthumb 22.4896 85.9446
rfemur -25.2663 -6.90681 15.3513
rtibia 23.8539
rfoot -7.38584 -14.2169
rtoes 0.557264
lfemur -30.1937 -0.0986211 -12.8762
ltibia 22.721
lfoot -7.97773 -12.3332
ltoes -7.47074
347
root -10.2059 18.0807 5.11381 -154.064 76.1715 -170.198
lowerback 3.32406 1.86509 0.00860856
upperback 5.25056 2.60459 4.29365
thorax 3.35604 1.30771 4.43296
lowerneck -11.6154 3.03732 5.28351
upperneck 38.6492 7.43006 -4.62209
head 16.0912 3.94732 -1.51024
rclavicle 2.94201e-014 2.38542e-014
rhumerus -11.5815 24.855 -100.345
rradius 37.7464
rwrist -43.9274
rhand -30.6926 -11.3076
rfingers 7.12502
rthumb -3.98627 -41.25
lclavicle 2.94201e-014 2.38542e-014
lhumerus -8.47563 -37.3061 106.687
lradius 34.0709
lwrist 45.5932
lhand -3.16613 57.2323
lfingers 7.12502
lthumb 22.5545 85.9348
rfemur -25.2728 -6.93121 15.1929
rtibia 23.8815
rfoot -7.38839 -14.1983
rtoes 0.331299
lfemur -30.1563 -0.0917805 -13.0389
ltibia 22.6801
lfoot -7.91839 -12.34
ltoes -7.25793
348
root -10.2075 18.0793 5.11477 -154.181 76.17 -170.314
lowerback 3.35866 1.86606 -0.0464753
upperback 5.24089 2.60605 4.29619
thorax 3.32403 1.30679 4.46479
lowerneck -11.6372 3.11205 5.29361
upperneck 38.6625 7.53872 -4.60937
head 16.1121 3.99463 -1.48704
rclavicle 5.00937e-014 1.43125e-014
rhumerus -11.6067 24.8812 -100.337
rradius 37.783
rwrist -43.9613
rhand -30.7026 -11.2936
rfingers 7.12502
rthumb -3.99596 -41.2358
lclavicle 5.00937e-014 1.43125e-014
lhumerus -8.47317 -37.3243 106.689
lradius 34.0654
lwrist 45.625
lhand -3.12214 57.1969
lfingers 7.12502
lthumb 22.5967 85.8943
rfemur -25.2805 -6.93615 15.1629
rtibia 23.8943
rfoot -7.43199 -14.2115
rtoes 0.539758
lfemur -30.1525 0.044397 -13.1197
ltibia 22.642
lfoot -7.89373 -12.5288
ltoes -7.47103
349
root -10.2084 18.0783 5.11616 -153.867 76.0854 -169.964
lowerback 3.40097 1.85425 0.0254427
upperback 5.2494 2.59375 4.34112
thorax 3.31122 1.3037 4.46993
lowerneck -11.6383 3.21592 5.3614
upperneck 38.6267 7.69212 -4.66032
head 16.1126 4.05971 -1.49454
rclavicle 2.14687e-014 7.23576e-014
rhumerus -11.5937 24.8935 -100.302
rradius 37.8048
rwrist -43.8866
rhand -30.6223 -11.4048
rfingers 7.12502
rthumb -3.91839 -41.3485
lclavicle 2.14687e-014 7.23576e-014
lhumerus -8.42429 -37.3283 106.684
lradius 34.0333
lwrist 45.5662
lhand -3.04555 57.1608
lfingers 7.12502
lthumb 22.6703 85.8492
rfemur -25.2437 -6.84238 15.2605
rtibia 23.899
rfoot -7.41345 -14.3496
rtoes 0.529254
lfemur -30.1349 0.113114 -13.016
ltibia 22.6115
lfoot -7.83904 -12.6797
ltoes -7.30098
